<svg xmlns="http://www.w3.org/2000/svg" viewBox="0 0 24 24" fill="currentColor"><path d="M12 .5C5.73.5.5 5.73.5 12c0 5.08 3.29 9.39 7.86 10.91.58.11.79-.25.79-.56 0-.28-.01-1.02-.02-2-3.2.7-3.88-1.54-3.88-1.54-.53-1.36-1.3-1.72-1.3-1.72-1.06-.72.08-.71.08-.71 1.17.08 1.78 1.2 1.78 1.2 1.04 1.78 2.72 1.27 3.39.97.11-.76.41-1.27.75-1.56-2.55-.29-5.23-1.28-5.23-5.72 0-1.26.45-2.29 1.2-3.1-.12-.3-.52-1.52.11-3.17 0 0 .98-.31 3.2 1.18a11.1 11.1 0 0 1 5.83 0c2.22-1.5 3.2-1.18 3.2-1.18.63 1.65.23 2.87.11 3.17.75.81 1.2 1.84 1.2 3.1 0 4.45-2.68 5.42-5.24 5.7.42.36.79 1.07.79 2.15 0 1.55-.01 2.8-.01 3.18 0 .31.21.68.8.56A11.53 11.53 0 0 0 23.5 12C23.5 5.73 18.27.5 12 .5z"></path></svg>
